# xmcd
#
# Track frame offsets:
#	150
#	26192
#	46742
#	65195
#	96717
#	124201
#	197489
#
# Disc length: 3662 seconds
# Revision: 0
# Processed by: cddbd v1.5.2PL0 Copyright (c) Steve Scherf et al.
# Submitted via: dBpowerAMP V12.0
#
DISCID=680e4c07
DTITLE=Peewee Bluesgang - 40 Bluesful Years
DYEAR=2018
DGENRE=Blues
TTITLE0=Going Down
TTITLE1=Every Day I Have The Blues
TTITLE2=Make My Day
TTITLE3=California
TTITLE4=Too Much Soul
TTITLE5=Tikki Bar Is Open
TTITLE6=Hey Joe
EXTD=
EXTT0=
EXTT1=
EXTT2=
EXTT3=
EXTT4=
EXTT5=
EXTT6=
PLAYORDER=
